<mxfile host="Electron" modified="2023-10-10T13:17:42.913Z" agent="Mozilla/5.0 (Windows NT 10.0; Win64; x64) AppleWebKit/537.36 (KHTML, like Gecko) draw.io/22.0.2 Chrome/114.0.5735.289 Electron/25.8.4 Safari/537.36" etag="kvJ0DoWehSPFC7pxUt1P" version="22.0.2" type="device">
  <diagram name="Page-1" id="cJQEnlbzoLpDJYmZ8Dfe">
    <mxGraphModel dx="226" dy="503" grid="1" gridSize="10" guides="1" tooltips="1" connect="1" arrows="1" fold="1" page="1" pageScale="1" pageWidth="827" pageHeight="1169" math="0" shadow="0">
      <root>
        <mxCell id="0" />
        <mxCell id="1" parent="0" />
        <mxCell id="lzu95AISXospRRm5H2qa-20" value="PrijsCategorie" style="swimlane;fontStyle=1;childLayout=stackLayout;horizontal=1;startSize=26;horizontalStack=0;resizeParent=1;resizeParentMax=0;resizeLast=0;collapsible=1;marginBottom=0;align=center;fontSize=14;strokeColor=#666666;fillColor=#f5f5f5;fontColor=#333333;" vertex="1" parent="1">
          <mxGeometry x="40" y="210" width="160" height="90" as="geometry" />
        </mxCell>
        <mxCell id="lzu95AISXospRRm5H2qa-22" value="&lt;u&gt;code&lt;/u&gt;&lt;br&gt;naam&lt;br&gt;prijs" style="text;html=1;strokeColor=none;fillColor=none;align=center;verticalAlign=middle;whiteSpace=wrap;rounded=0;" vertex="1" parent="lzu95AISXospRRm5H2qa-20">
          <mxGeometry y="26" width="160" height="64" as="geometry" />
        </mxCell>
        <mxCell id="lzu95AISXospRRm5H2qa-39" style="edgeStyle=orthogonalEdgeStyle;rounded=0;orthogonalLoop=1;jettySize=auto;html=1;exitX=0.5;exitY=0;exitDx=0;exitDy=0;entryX=0.5;entryY=1;entryDx=0;entryDy=0;endArrow=none;endFill=0;" edge="1" parent="1" source="lzu95AISXospRRm5H2qa-23" target="lzu95AISXospRRm5H2qa-22">
          <mxGeometry relative="1" as="geometry" />
        </mxCell>
        <mxCell id="lzu95AISXospRRm5H2qa-40" value="0..N" style="edgeLabel;html=1;align=center;verticalAlign=middle;resizable=0;points=[];" vertex="1" connectable="0" parent="lzu95AISXospRRm5H2qa-39">
          <mxGeometry x="0.786" y="2" relative="1" as="geometry">
            <mxPoint x="-18" as="offset" />
          </mxGeometry>
        </mxCell>
        <mxCell id="lzu95AISXospRRm5H2qa-41" value="0..N" style="edgeLabel;html=1;align=center;verticalAlign=middle;resizable=0;points=[];" vertex="1" connectable="0" parent="lzu95AISXospRRm5H2qa-39">
          <mxGeometry x="-0.774" y="2" relative="1" as="geometry">
            <mxPoint x="22" as="offset" />
          </mxGeometry>
        </mxCell>
        <mxCell id="lzu95AISXospRRm5H2qa-42" value="Dagticket" style="edgeLabel;html=1;align=center;verticalAlign=middle;resizable=0;points=[];" vertex="1" connectable="0" parent="lzu95AISXospRRm5H2qa-39">
          <mxGeometry x="0.016" y="-1" relative="1" as="geometry">
            <mxPoint as="offset" />
          </mxGeometry>
        </mxCell>
        <mxCell id="lzu95AISXospRRm5H2qa-23" value="Concertdag" style="swimlane;fontStyle=1;childLayout=stackLayout;horizontal=1;startSize=26;horizontalStack=0;resizeParent=1;resizeParentMax=0;resizeLast=0;collapsible=1;marginBottom=0;align=center;fontSize=14;strokeColor=#666666;fillColor=#f5f5f5;fontColor=#333333;" vertex="1" parent="1">
          <mxGeometry x="40" y="400" width="160" height="100" as="geometry" />
        </mxCell>
        <mxCell id="lzu95AISXospRRm5H2qa-24" value="nummer&#xa;datum&#xa;beginUur&#xa;eindUur" style="text;strokeColor=none;fillColor=none;spacingLeft=4;spacingRight=4;overflow=hidden;rotatable=0;points=[[0,0.5],[1,0.5]];portConstraint=eastwest;fontSize=12;align=center;" vertex="1" parent="lzu95AISXospRRm5H2qa-23">
          <mxGeometry y="26" width="160" height="74" as="geometry" />
        </mxCell>
        <mxCell id="lzu95AISXospRRm5H2qa-25" value="Concert" style="swimlane;fontStyle=1;childLayout=stackLayout;horizontal=1;startSize=26;horizontalStack=0;resizeParent=1;resizeParentMax=0;resizeLast=0;collapsible=1;marginBottom=0;align=center;fontSize=14;strokeColor=#666666;fillColor=#f5f5f5;fontColor=#333333;" vertex="1" parent="1">
          <mxGeometry x="334" y="400" width="160" height="56" as="geometry" />
        </mxCell>
        <mxCell id="lzu95AISXospRRm5H2qa-26" value="naam" style="text;strokeColor=none;fillColor=none;spacingLeft=4;spacingRight=4;overflow=hidden;rotatable=0;points=[[0,0.5],[1,0.5]];portConstraint=eastwest;fontSize=12;align=center;fontStyle=4" vertex="1" parent="lzu95AISXospRRm5H2qa-25">
          <mxGeometry y="26" width="160" height="30" as="geometry" />
        </mxCell>
        <mxCell id="lzu95AISXospRRm5H2qa-27" value="Artiest" style="swimlane;fontStyle=1;childLayout=stackLayout;horizontal=1;startSize=26;horizontalStack=0;resizeParent=1;resizeParentMax=0;resizeLast=0;collapsible=1;marginBottom=0;align=center;fontSize=14;strokeColor=#666666;fillColor=#f5f5f5;fontColor=#333333;" vertex="1" parent="1">
          <mxGeometry x="40" y="585" width="160" height="116" as="geometry" />
        </mxCell>
        <mxCell id="lzu95AISXospRRm5H2qa-29" value="&lt;u&gt;code&lt;/u&gt;&lt;br&gt;naam&lt;br&gt;nationaliteit&lt;br&gt;prijsPerUur&lt;br&gt;omschrijving" style="text;html=1;align=center;verticalAlign=middle;resizable=0;points=[];autosize=1;strokeColor=none;fillColor=none;" vertex="1" parent="lzu95AISXospRRm5H2qa-27">
          <mxGeometry y="26" width="160" height="90" as="geometry" />
        </mxCell>
        <mxCell id="lzu95AISXospRRm5H2qa-30" value="Locatie" style="swimlane;fontStyle=1;childLayout=stackLayout;horizontal=1;startSize=26;horizontalStack=0;resizeParent=1;resizeParentMax=0;resizeLast=0;collapsible=1;marginBottom=0;align=center;fontSize=14;strokeColor=#666666;fillColor=#f5f5f5;fontColor=#333333;" vertex="1" parent="1">
          <mxGeometry x="610" y="400" width="160" height="96" as="geometry" />
        </mxCell>
        <mxCell id="lzu95AISXospRRm5H2qa-33" value="&lt;u&gt;naam&lt;/u&gt;&lt;br&gt;adres&lt;br&gt;telefoonNummer&lt;br&gt;maxCapaciteit" style="text;html=1;align=center;verticalAlign=middle;resizable=0;points=[];autosize=1;strokeColor=none;fillColor=none;" vertex="1" parent="lzu95AISXospRRm5H2qa-30">
          <mxGeometry y="26" width="160" height="70" as="geometry" />
        </mxCell>
        <mxCell id="lzu95AISXospRRm5H2qa-34" style="edgeStyle=orthogonalEdgeStyle;rounded=0;orthogonalLoop=1;jettySize=auto;html=1;exitX=0.5;exitY=0;exitDx=0;exitDy=0;entryX=0.498;entryY=1;entryDx=0;entryDy=0;entryPerimeter=0;endArrow=none;endFill=0;" edge="1" parent="1" source="lzu95AISXospRRm5H2qa-27" target="lzu95AISXospRRm5H2qa-24">
          <mxGeometry relative="1" as="geometry" />
        </mxCell>
        <mxCell id="lzu95AISXospRRm5H2qa-35" value="0..N" style="edgeLabel;html=1;align=center;verticalAlign=middle;resizable=0;points=[];" vertex="1" connectable="0" parent="lzu95AISXospRRm5H2qa-34">
          <mxGeometry x="0.8754" relative="1" as="geometry">
            <mxPoint x="-10" y="5" as="offset" />
          </mxGeometry>
        </mxCell>
        <mxCell id="lzu95AISXospRRm5H2qa-36" value="1..N" style="edgeLabel;html=1;align=center;verticalAlign=middle;resizable=0;points=[];" vertex="1" connectable="0" parent="lzu95AISXospRRm5H2qa-34">
          <mxGeometry x="-0.8347" y="1" relative="1" as="geometry">
            <mxPoint x="11" as="offset" />
          </mxGeometry>
        </mxCell>
        <mxCell id="lzu95AISXospRRm5H2qa-37" value="Heeft" style="edgeLabel;html=1;align=center;verticalAlign=middle;resizable=0;points=[];" vertex="1" connectable="0" parent="lzu95AISXospRRm5H2qa-34">
          <mxGeometry x="-0.0533" relative="1" as="geometry">
            <mxPoint x="20" y="-5" as="offset" />
          </mxGeometry>
        </mxCell>
        <mxCell id="lzu95AISXospRRm5H2qa-38" value="SpeeltOp" style="edgeLabel;html=1;align=center;verticalAlign=middle;resizable=0;points=[];" vertex="1" connectable="0" parent="lzu95AISXospRRm5H2qa-34">
          <mxGeometry x="-0.0697" relative="1" as="geometry">
            <mxPoint x="-30" as="offset" />
          </mxGeometry>
        </mxCell>
        <mxCell id="lzu95AISXospRRm5H2qa-43" style="edgeStyle=orthogonalEdgeStyle;rounded=0;orthogonalLoop=1;jettySize=auto;html=1;exitX=1;exitY=0.25;exitDx=0;exitDy=0;entryX=0;entryY=0.5;entryDx=0;entryDy=0;endArrow=none;endFill=0;" edge="1" parent="1" source="lzu95AISXospRRm5H2qa-23" target="lzu95AISXospRRm5H2qa-25">
          <mxGeometry relative="1" as="geometry" />
        </mxCell>
        <mxCell id="lzu95AISXospRRm5H2qa-44" value="1..N" style="edgeLabel;html=1;align=center;verticalAlign=middle;resizable=0;points=[];" vertex="1" connectable="0" parent="lzu95AISXospRRm5H2qa-43">
          <mxGeometry x="-0.8088" relative="1" as="geometry">
            <mxPoint y="16" as="offset" />
          </mxGeometry>
        </mxCell>
        <mxCell id="lzu95AISXospRRm5H2qa-45" value="1..1" style="edgeLabel;html=1;align=center;verticalAlign=middle;resizable=0;points=[];" vertex="1" connectable="0" parent="lzu95AISXospRRm5H2qa-43">
          <mxGeometry x="0.6657" y="1" relative="1" as="geometry">
            <mxPoint y="-17" as="offset" />
          </mxGeometry>
        </mxCell>
        <mxCell id="lzu95AISXospRRm5H2qa-46" value="Voor" style="edgeLabel;html=1;align=center;verticalAlign=middle;resizable=0;points=[];" vertex="1" connectable="0" parent="lzu95AISXospRRm5H2qa-43">
          <mxGeometry x="-0.1445" y="2" relative="1" as="geometry">
            <mxPoint x="12" y="-13" as="offset" />
          </mxGeometry>
        </mxCell>
        <mxCell id="lzu95AISXospRRm5H2qa-47" value="Heeft" style="edgeLabel;html=1;align=center;verticalAlign=middle;resizable=0;points=[];" vertex="1" connectable="0" parent="lzu95AISXospRRm5H2qa-43">
          <mxGeometry x="0.0219" relative="1" as="geometry">
            <mxPoint y="12" as="offset" />
          </mxGeometry>
        </mxCell>
        <mxCell id="lzu95AISXospRRm5H2qa-48" style="edgeStyle=orthogonalEdgeStyle;rounded=0;orthogonalLoop=1;jettySize=auto;html=1;exitX=1;exitY=0.5;exitDx=0;exitDy=0;entryX=-0.006;entryY=0.221;entryDx=0;entryDy=0;entryPerimeter=0;endArrow=none;endFill=0;" edge="1" parent="1" source="lzu95AISXospRRm5H2qa-26" target="lzu95AISXospRRm5H2qa-33">
          <mxGeometry relative="1" as="geometry" />
        </mxCell>
        <mxCell id="lzu95AISXospRRm5H2qa-49" value="0..N" style="edgeLabel;html=1;align=center;verticalAlign=middle;resizable=0;points=[];" vertex="1" connectable="0" parent="lzu95AISXospRRm5H2qa-48">
          <mxGeometry x="-0.7698" y="1" relative="1" as="geometry">
            <mxPoint x="3" y="10" as="offset" />
          </mxGeometry>
        </mxCell>
        <mxCell id="lzu95AISXospRRm5H2qa-50" value="1..1" style="edgeLabel;html=1;align=center;verticalAlign=middle;resizable=0;points=[];" vertex="1" connectable="0" parent="lzu95AISXospRRm5H2qa-48">
          <mxGeometry x="0.6929" y="-2" relative="1" as="geometry">
            <mxPoint y="-13" as="offset" />
          </mxGeometry>
        </mxCell>
        <mxCell id="lzu95AISXospRRm5H2qa-51" value="Op" style="edgeLabel;html=1;align=center;verticalAlign=middle;resizable=0;points=[];" vertex="1" connectable="0" parent="lzu95AISXospRRm5H2qa-48">
          <mxGeometry x="-0.138" y="1" relative="1" as="geometry">
            <mxPoint y="-10" as="offset" />
          </mxGeometry>
        </mxCell>
        <mxCell id="lzu95AISXospRRm5H2qa-52" value="Heeft" style="edgeLabel;html=1;align=center;verticalAlign=middle;resizable=0;points=[];" vertex="1" connectable="0" parent="lzu95AISXospRRm5H2qa-48">
          <mxGeometry x="0.0438" relative="1" as="geometry">
            <mxPoint y="9" as="offset" />
          </mxGeometry>
        </mxCell>
        <mxCell id="lzu95AISXospRRm5H2qa-53" style="edgeStyle=orthogonalEdgeStyle;rounded=0;orthogonalLoop=1;jettySize=auto;html=1;exitX=1;exitY=0.5;exitDx=0;exitDy=0;entryX=0.5;entryY=0;entryDx=0;entryDy=0;endArrow=none;endFill=0;" edge="1" parent="1" source="lzu95AISXospRRm5H2qa-22" target="lzu95AISXospRRm5H2qa-25">
          <mxGeometry relative="1" as="geometry" />
        </mxCell>
        <mxCell id="lzu95AISXospRRm5H2qa-54" value="0..N" style="edgeLabel;html=1;align=center;verticalAlign=middle;resizable=0;points=[];" vertex="1" connectable="0" parent="lzu95AISXospRRm5H2qa-53">
          <mxGeometry x="0.905" y="-2" relative="1" as="geometry">
            <mxPoint x="18" y="-14" as="offset" />
          </mxGeometry>
        </mxCell>
        <mxCell id="lzu95AISXospRRm5H2qa-55" value="0..N" style="edgeLabel;html=1;align=center;verticalAlign=middle;resizable=0;points=[];" vertex="1" connectable="0" parent="lzu95AISXospRRm5H2qa-53">
          <mxGeometry x="-0.8118" y="1" relative="1" as="geometry">
            <mxPoint x="-13" y="23" as="offset" />
          </mxGeometry>
        </mxCell>
        <mxCell id="lzu95AISXospRRm5H2qa-56" value="Combi" style="edgeLabel;html=1;align=center;verticalAlign=middle;resizable=0;points=[];" vertex="1" connectable="0" parent="lzu95AISXospRRm5H2qa-53">
          <mxGeometry x="0.3972" y="2" relative="1" as="geometry">
            <mxPoint x="-2" y="24" as="offset" />
          </mxGeometry>
        </mxCell>
      </root>
    </mxGraphModel>
  </diagram>
</mxfile>
